<svg xmlns="http://www.w3.org/2000/svg" viewBox="0 0 32 32" shape-rendering="crispEdges">
  <g fill="#5e2d12">
    <rect x="13" y="2" width="6" height="1"/>
    <rect x="11" y="3" width="10" height="1"/>
    <rect x="10" y="4" width="12" height="1"/>
    <rect x="9" y="5" width="14" height="1"/>
    <rect x="8" y="6" width="16" height="1"/>
    <rect x="7" y="7" width="2" height="1"/>
    <rect x="11" y="7" width="14" height="1"/>
    <rect x="7" y="8" width="2" height="1"/>
    <rect x="11" y="8" width="14" height="1"/>
    <rect x="7" y="9" width="3" height="1"/>
    <rect x="22" y="9" width="3" height="1"/>
    <rect x="7" y="10" width="2" height="1"/>
    <rect x="23" y="10" width="2" height="1"/>
    <rect x="7" y="11" width="1" height="6"/>
    <rect x="24" y="11" width="1" height="6"/>
  </g>
  <rect x="9" y="7" width="2" height="2" fill="#a4582a"/>
  <g fill="#f0c8a0">
    <rect x="10" y="9" width="12" height="1"/>
    <rect x="9" y="10" width="14" height="1"/>
    <rect x="8" y="11" width="16" height="1"/>
    <rect x="8" y="12" width="2" height="1"/>
    <rect x="22" y="12" width="2" height="1"/>
    <rect x="8" y="13" width="2" height="1"/>
    <rect x="11" y="13" width="1" height="1"/>
    <rect x="13" y="13" width="2" height="1"/>
    <rect x="17" y="13" width="2" height="1"/>
    <rect x="20" y="13" width="1" height="1"/>
    <rect x="22" y="13" width="2" height="1"/>
    <rect x="8" y="14" width="2" height="1"/>
    <rect x="22" y="14" width="2" height="1"/>
    <rect x="8" y="15" width="16" height="1"/>
    <rect x="8" y="16" width="16" height="1"/>
    <rect x="8" y="17" width="2" height="1"/>
    <rect x="22" y="17" width="2" height="1"/>
    <rect x="8" y="18" width="2" height="1"/>
    <rect x="22" y="18" width="2" height="1"/>
  </g>
  <g fill="#221208">
    <rect x="10" y="12" width="12" height="1"/>
    <rect x="10" y="13" width="1" height="1"/>
    <rect x="15" y="13" width="2" height="1"/>
    <rect x="21" y="13" width="1" height="1"/>
    <rect x="10" y="14" width="12" height="1"/>
  </g>
  <g fill="#3a5868">
    <rect x="12" y="13" width="1" height="1"/>
    <rect x="19" y="13" width="1" height="1"/>
  </g>
  <g fill="#8a3818">
    <rect x="7" y="17" width="1" height="1"/>
    <rect x="10" y="17" width="12" height="1"/>
    <rect x="24" y="17" width="1" height="1"/>
    <rect x="7" y="18" width="1" height="1"/>
    <rect x="10" y="18" width="4" height="1"/>
    <rect x="18" y="18" width="4" height="1"/>
    <rect x="24" y="18" width="1" height="1"/>
    <rect x="7" y="19" width="18" height="1"/>
    <rect x="8" y="20" width="16" height="1"/>
    <rect x="9" y="21" width="14" height="1"/>
    <rect x="10" y="22" width="12" height="1"/>
    <rect x="11" y="23" width="10" height="1"/>
    <rect x="13" y="24" width="6" height="1"/>
  </g>
  <rect x="14" y="18" width="4" height="1" fill="#e8d8c0"/>
  <g fill="#f0c8a0">
    <rect x="13" y="25" width="6" height="5"/>
    <rect x="14" y="30" width="4" height="1"/>
  </g>
  <g fill="#d4a048">
    <rect x="12" y="26" width="1" height="5"/>
    <rect x="19" y="26" width="1" height="5"/>
    <rect x="13" y="30" width="1" height="1"/>
    <rect x="18" y="30" width="1" height="1"/>
  </g>
  <g fill="#1d2f58">
    <rect x="11" y="26" width="1" height="1"/>
    <rect x="20" y="26" width="1" height="1"/>
    <rect x="9" y="27" width="3" height="1"/>
    <rect x="20" y="27" width="3" height="1"/>
    <rect x="7" y="28" width="5" height="1"/>
    <rect x="20" y="28" width="5" height="1"/>
    <rect x="5" y="29" width="7" height="1"/>
    <rect x="20" y="29" width="7" height="1"/>
    <rect x="3" y="30" width="9" height="1"/>
    <rect x="20" y="30" width="9" height="1"/>
    <rect x="0" y="31" width="32" height="1"/>
  </g>
</svg>
